{
    "asset" : {
        "generator" : "Khronos glTF Blender I/O v1.1.46",
        "version" : "2.0"
    },
    "scene" : 0,
    "scenes" : [
        {
            "name" : "Scene",
            "nodes" : [
                6
            ]
        }
    ],
    "nodes" : [
        {
            "name" : "Bone.001",
            "rotation" : [
                0.012013625353574753,
                0.13228599727153778,
                -0.43485769629478455,
                0.8906487226486206
            ],
            "translation" : [
                0,
                1,
                0
            ]
        },
        {
            "children" : [
                0
            ],
            "name" : "Bone"
        },
        {
            "name" : "Bone.004",
            "rotation" : [
                0.26637524366378784,
                -3.736026243927881e-08,
                -1.4845323903500685e-07,
                0.9638695120811462
            ],
            "translation" : [
                7.105427357601002e-15,
                0.6457204818725586,
                -7.450469574621366e-09
            ]
        },
        {
            "children" : [
                2
            ],
            "name" : "Bone.003",
            "rotation" : [
                -0.06242404505610466,
                4.078740545310211e-08,
                3.403282278213737e-08,
                0.9980497360229492
            ],
            "scale" : [
                1,
                0.9999998807907104,
                0.9999999403953552
            ],
            "translation" : [
                -8.881784197001252e-15,
                0.9103366136550903,
                7.252531908363835e-14
            ]
        },
        {
            "children" : [
                3
            ],
            "name" : "Bone.002",
            "rotation" : [
                -0.7044428586959839,
                -0.061324797570705414,
                -0.7044421434402466,
                0.06132487580180168
            ],
            "scale" : [
                1,
                0.9999998807907104,
                0.9999998807907104
            ]
        },
        {
            "mesh" : 0,
            "name" : "prelim-mouse-blender-3",
            "skin" : 0
        },
        {
            "children" : [
                5,
                1,
                4
            ],
            "name" : "Armature",
            "scale" : [
                3.599175453186035,
                3.599175453186035,
                3.599175453186035
            ],
            "translation" : [
                -1.047562599182129,
                6.111257553100586,
                -2.988266944885254
            ]
        }
    ],
    "animations" : [
        {
            "channels" : [
                {
                    "sampler" : 0,
                    "target" : {
                        "node" : 1,
                        "path" : "translation"
                    }
                },
                {
                    "sampler" : 1,
                    "target" : {
                        "node" : 1,
                        "path" : "rotation"
                    }
                },
                {
                    "sampler" : 2,
                    "target" : {
                        "node" : 1,
                        "path" : "scale"
                    }
                },
                {
                    "sampler" : 3,
                    "target" : {
                        "node" : 0,
                        "path" : "translation"
                    }
                },
                {
                    "sampler" : 4,
                    "target" : {
                        "node" : 0,
                        "path" : "rotation"
                    }
                },
                {
                    "sampler" : 5,
                    "target" : {
                        "node" : 0,
                        "path" : "scale"
                    }
                },
                {
                    "sampler" : 6,
                    "target" : {
                        "node" : 4,
                        "path" : "translation"
                    }
                },
                {
                    "sampler" : 7,
                    "target" : {
                        "node" : 4,
                        "path" : "rotation"
                    }
                },
                {
                    "sampler" : 8,
                    "target" : {
                        "node" : 4,
                        "path" : "scale"
                    }
                },
                {
                    "sampler" : 9,
                    "target" : {
                        "node" : 3,
                        "path" : "translation"
                    }
                },
                {
                    "sampler" : 10,
                    "target" : {
                        "node" : 3,
                        "path" : "rotation"
                    }
                },
                {
                    "sampler" : 11,
                    "target" : {
                        "node" : 3,
                        "path" : "scale"
                    }
                },
                {
                    "sampler" : 12,
                    "target" : {
                        "node" : 2,
                        "path" : "translation"
                    }
                },
                {
                    "sampler" : 13,
                    "target" : {
                        "node" : 2,
                        "path" : "rotation"
                    }
                },
                {
                    "sampler" : 14,
                    "target" : {
                        "node" : 2,
                        "path" : "scale"
                    }
                }
            ],
            "name" : "ArmatureAction",
            "samplers" : [
                {
                    "input" : 7,
                    "interpolation" : "LINEAR",
                    "output" : 8
                },
                {
                    "input" : 7,
                    "interpolation" : "LINEAR",
                    "output" : 9
                },
                {
                    "input" : 7,
                    "interpolation" : "LINEAR",
                    "output" : 10
                },
                {
                    "input" : 7,
                    "interpolation" : "LINEAR",
                    "output" : 11
                },
                {
                    "input" : 7,
                    "interpolation" : "LINEAR",
                    "output" : 12
                },
                {
                    "input" : 7,
                    "interpolation" : "LINEAR",
                    "output" : 13
                },
                {
                    "input" : 7,
                    "interpolation" : "LINEAR",
                    "output" : 14
                },
                {
                    "input" : 7,
                    "interpolation" : "LINEAR",
                    "output" : 15
                },
                {
                    "input" : 7,
                    "interpolation" : "LINEAR",
                    "output" : 16
                },
                {
                    "input" : 7,
                    "interpolation" : "LINEAR",
                    "output" : 17
                },
                {
                    "input" : 7,
                    "interpolation" : "LINEAR",
                    "output" : 18
                },
                {
                    "input" : 7,
                    "interpolation" : "LINEAR",
                    "output" : 19
                },
                {
                    "input" : 7,
                    "interpolation" : "LINEAR",
                    "output" : 20
                },
                {
                    "input" : 7,
                    "interpolation" : "LINEAR",
                    "output" : 21
                },
                {
                    "input" : 7,
                    "interpolation" : "LINEAR",
                    "output" : 22
                }
            ]
        }
    ],
    "materials" : [
        {
            "doubleSided" : true,
            "emissiveFactor" : [
                0,
                0,
                0
            ],
            "name" : "material_0",
            "pbrMetallicRoughness" : {
                "baseColorTexture" : {
                    "index" : 0,
                    "texCoord" : 0
                },
                "metallicFactor" : 0,
                "roughnessFactor" : 1
            }
        }
    ],
    "meshes" : [
        {
            "name" : "prelim-mouse-blender-3",
            "primitives" : [
                {
                    "attributes" : {
                        "POSITION" : 0,
                        "NORMAL" : 1,
                        "TEXCOORD_0" : 2,
                        "JOINTS_0" : 3,
                        "WEIGHTS_0" : 4
                    },
                    "indices" : 5,
                    "material" : 0
                }
            ]
        }
    ],
    "textures" : [
        {
            "source" : 0
        }
    ],
    "images" : [
        {
            "mimeType" : "image/png",
            "name" : "mouse-texture-2",
            "uri" : "mouse-texture/mouse-texture-2.png"
        }
    ],
    "skins" : [
        {
            "inverseBindMatrices" : 6,
            "joints" : [
                1,
                0,
                4,
                3,
                2
            ],
            "name" : "Armature"
        }
    ],
    "accessors" : [
        {
            "bufferView" : 0,
            "componentType" : 5126,
            "count" : 56491,
            "max" : [
                2.3571410179138184,
                15.9076566696167,
                0.5508069396018982
            ],
            "min" : [
                -3.5423784255981445,
                -1.199433445930481,
                -6.338129043579102
            ],
            "type" : "VEC3"
        },
        {
            "bufferView" : 1,
            "componentType" : 5126,
            "count" : 56491,
            "type" : "VEC3"
        },
        {
            "bufferView" : 2,
            "componentType" : 5126,
            "count" : 56491,
            "type" : "VEC2"
        },
        {
            "bufferView" : 3,
            "componentType" : 5123,
            "count" : 56491,
            "type" : "VEC4"
        },
        {
            "bufferView" : 4,
            "componentType" : 5126,
            "count" : 56491,
            "type" : "VEC4"
        },
        {
            "bufferView" : 5,
            "componentType" : 5123,
            "count" : 250869,
            "type" : "SCALAR"
        },
        {
            "bufferView" : 6,
            "componentType" : 5126,
            "count" : 5,
            "type" : "MAT4"
        },
        {
            "bufferView" : 7,
            "componentType" : 5126,
            "count" : 59,
            "max" : [
                2.4166666666666665
            ],
            "min" : [
                0
            ],
            "type" : "SCALAR"
        },
        {
            "bufferView" : 8,
            "componentType" : 5126,
            "count" : 59,
            "type" : "VEC3"
        },
        {
            "bufferView" : 9,
            "componentType" : 5126,
            "count" : 59,
            "type" : "VEC4"
        },
        {
            "bufferView" : 10,
            "componentType" : 5126,
            "count" : 59,
            "type" : "VEC3"
        },
        {
            "bufferView" : 11,
            "componentType" : 5126,
            "count" : 59,
            "type" : "VEC3"
        },
        {
            "bufferView" : 12,
            "componentType" : 5126,
            "count" : 59,
            "type" : "VEC4"
        },
        {
            "bufferView" : 13,
            "componentType" : 5126,
            "count" : 59,
            "type" : "VEC3"
        },
        {
            "bufferView" : 14,
            "componentType" : 5126,
            "count" : 59,
            "type" : "VEC3"
        },
        {
            "bufferView" : 15,
            "componentType" : 5126,
            "count" : 59,
            "type" : "VEC4"
        },
        {
            "bufferView" : 16,
            "componentType" : 5126,
            "count" : 59,
            "type" : "VEC3"
        },
        {
            "bufferView" : 17,
            "componentType" : 5126,
            "count" : 59,
            "type" : "VEC3"
        },
        {
            "bufferView" : 18,
            "componentType" : 5126,
            "count" : 59,
            "type" : "VEC4"
        },
        {
            "bufferView" : 19,
            "componentType" : 5126,
            "count" : 59,
            "type" : "VEC3"
        },
        {
            "bufferView" : 20,
            "componentType" : 5126,
            "count" : 59,
            "type" : "VEC3"
        },
        {
            "bufferView" : 21,
            "componentType" : 5126,
            "count" : 59,
            "type" : "VEC4"
        },
        {
            "bufferView" : 22,
            "componentType" : 5126,
            "count" : 59,
            "type" : "VEC3"
        }
    ],
    "bufferViews" : [
        {
            "buffer" : 0,
            "byteLength" : 677892,
            "byteOffset" : 0
        },
        {
            "buffer" : 0,
            "byteLength" : 677892,
            "byteOffset" : 677892
        },
        {
            "buffer" : 0,
            "byteLength" : 451928,
            "byteOffset" : 1355784
        },
        {
            "buffer" : 0,
            "byteLength" : 451928,
            "byteOffset" : 1807712
        },
        {
            "buffer" : 0,
            "byteLength" : 903856,
            "byteOffset" : 2259640
        },
        {
            "buffer" : 0,
            "byteLength" : 501738,
            "byteOffset" : 3163496
        },
        {
            "buffer" : 0,
            "byteLength" : 320,
            "byteOffset" : 3665236
        },
        {
            "buffer" : 0,
            "byteLength" : 236,
            "byteOffset" : 3665556
        },
        {
            "buffer" : 0,
            "byteLength" : 708,
            "byteOffset" : 3665792
        },
        {
            "buffer" : 0,
            "byteLength" : 944,
            "byteOffset" : 3666500
        },
        {
            "buffer" : 0,
            "byteLength" : 708,
            "byteOffset" : 3667444
        },
        {
            "buffer" : 0,
            "byteLength" : 708,
            "byteOffset" : 3668152
        },
        {
            "buffer" : 0,
            "byteLength" : 944,
            "byteOffset" : 3668860
        },
        {
            "buffer" : 0,
            "byteLength" : 708,
            "byteOffset" : 3669804
        },
        {
            "buffer" : 0,
            "byteLength" : 708,
            "byteOffset" : 3670512
        },
        {
            "buffer" : 0,
            "byteLength" : 944,
            "byteOffset" : 3671220
        },
        {
            "buffer" : 0,
            "byteLength" : 708,
            "byteOffset" : 3672164
        },
        {
            "buffer" : 0,
            "byteLength" : 708,
            "byteOffset" : 3672872
        },
        {
            "buffer" : 0,
            "byteLength" : 944,
            "byteOffset" : 3673580
        },
        {
            "buffer" : 0,
            "byteLength" : 708,
            "byteOffset" : 3674524
        },
        {
            "buffer" : 0,
            "byteLength" : 708,
            "byteOffset" : 3675232
        },
        {
            "buffer" : 0,
            "byteLength" : 944,
            "byteOffset" : 3675940
        },
        {
            "buffer" : 0,
            "byteLength" : 708,
            "byteOffset" : 3676884
        }
    ],
    "buffers" : [
        {
            "byteLength" : 3677592,
            "uri" : "full-mouse-1-animation.bin"
        }
    ]
}
