{
    "asset" : {
        "generator" : "Khronos glTF Blender I/O v1.1.46",
        "version" : "2.0"
    },
    "scene" : 0,
    "scenes" : [
        {
            "name" : "Scene",
            "nodes" : [
                0,
                1
            ]
        }
    ],
    "nodes" : [
        {
            "mesh" : 0,
            "name" : "Landscape_1",
            "translation" : [
                -0.1746385097503662,
                1.130894422531128,
                0.6402316093444824
            ]
        },
        {
            "mesh" : 1,
            "name" : "Landscape_2",
            "translation" : [
                -0.1746385097503662,
                1.130894422531128,
                0.6402316093444824
            ]
        }
    ],
    "meshes" : [
        {
            "name" : "Landscape",
            "primitives" : [
                {
                    "attributes" : {
                        "POSITION" : 0,
                        "NORMAL" : 1,
                        "JOINTS_0" : 2,
                        "WEIGHTS_0" : 3
                    },
                    "indices" : 4
                }
            ]
        },
        {
            "name" : "Landscape.002",
            "primitives" : [
                {
                    "attributes" : {
                        "POSITION" : 5,
                        "NORMAL" : 6,
                        "JOINTS_0" : 7,
                        "WEIGHTS_0" : 8
                    },
                    "indices" : 9
                }
            ]
        }
    ],
    "accessors" : [
        {
            "bufferView" : 0,
            "componentType" : 5126,
            "count" : 21756,
            "max" : [
                13.346456527709961,
                2.4118988513946533,
                13.110236167907715
            ],
            "min" : [
                -11.929133415222168,
                0.08891140669584274,
                -2.7165353298187256
            ],
            "type" : "VEC3"
        },
        {
            "bufferView" : 1,
            "componentType" : 5126,
            "count" : 21756,
            "type" : "VEC3"
        },
        {
            "bufferView" : 2,
            "componentType" : 5123,
            "count" : 21756,
            "type" : "VEC4"
        },
        {
            "bufferView" : 3,
            "componentType" : 5126,
            "count" : 21756,
            "type" : "VEC4"
        },
        {
            "bufferView" : 4,
            "componentType" : 5123,
            "count" : 32634,
            "type" : "SCALAR"
        },
        {
            "bufferView" : 5,
            "componentType" : 5126,
            "count" : 16896,
            "max" : [
                13.346456527709961,
                2.6752560138702393,
                2.952755928039551
            ],
            "min" : [
                -11.692913055419922,
                0.07826689630746841,
                -13.346456527709961
            ],
            "type" : "VEC3"
        },
        {
            "bufferView" : 6,
            "componentType" : 5126,
            "count" : 16896,
            "type" : "VEC3"
        },
        {
            "bufferView" : 7,
            "componentType" : 5123,
            "count" : 16896,
            "type" : "VEC4"
        },
        {
            "bufferView" : 8,
            "componentType" : 5126,
            "count" : 16896,
            "type" : "VEC4"
        },
        {
            "bufferView" : 9,
            "componentType" : 5123,
            "count" : 25344,
            "type" : "SCALAR"
        }
    ],
    "bufferViews" : [
        {
            "buffer" : 0,
            "byteLength" : 261072,
            "byteOffset" : 0
        },
        {
            "buffer" : 0,
            "byteLength" : 261072,
            "byteOffset" : 261072
        },
        {
            "buffer" : 0,
            "byteLength" : 174048,
            "byteOffset" : 522144
        },
        {
            "buffer" : 0,
            "byteLength" : 348096,
            "byteOffset" : 696192
        },
        {
            "buffer" : 0,
            "byteLength" : 65268,
            "byteOffset" : 1044288
        },
        {
            "buffer" : 0,
            "byteLength" : 202752,
            "byteOffset" : 1109556
        },
        {
            "buffer" : 0,
            "byteLength" : 202752,
            "byteOffset" : 1312308
        },
        {
            "buffer" : 0,
            "byteLength" : 135168,
            "byteOffset" : 1515060
        },
        {
            "buffer" : 0,
            "byteLength" : 270336,
            "byteOffset" : 1650228
        },
        {
            "buffer" : 0,
            "byteLength" : 50688,
            "byteOffset" : 1920564
        }
    ],
    "buffers" : [
        {
            "byteLength" : 1971252,
            "uri" : "data:application/octet-stream;base64,"
        }
    ]
}
