{
    "asset" : {
        "generator" : "Khronos glTF Blender I/O v1.1.46",
        "version" : "2.0"
    },
    "scene" : 0,
    "scenes" : [
        {
            "name" : "Scene",
            "nodes" : [
                0,
                1,
                2,
                3,
                4,
                5,
                6,
                7
            ]
        }
    ],
    "nodes" : [
        {
            "mesh" : 0,
            "name" : "Cylinder",
            "scale" : [
                1,
                0.5080434679985046,
                1
            ],
            "translation" : [
                0,
                1.2163951396942139,
                0
            ]
        },
        {
            "mesh" : 1,
            "name" : "Cylinder.001",
            "rotation" : [
                0.3812272250652313,
                -0.08052140474319458,
                0.033353060483932495,
                0.9203639030456543
            ],
            "scale" : [
                1,
                0.3001619577407837,
                1
            ],
            "translation" : [
                0.05769244208931923,
                0.47444021701812744,
                -0.32768434286117554
            ]
        },
        {
            "mesh" : 2,
            "name" : "Cylinder.002",
            "rotation" : [
                -0.3812272250652313,
                0.08052140474319458,
                0.033353060483932495,
                0.9203639030456543
            ],
            "scale" : [
                1,
                0.3001619577407837,
                1
            ],
            "translation" : [
                0.05849461629986763,
                0.47154706716537476,
                0.3274674117565155
            ]
        },
        {
            "mesh" : 3,
            "name" : "Cylinder.003",
            "rotation" : [
                -0.27059805393218994,
                -0.6532815098762512,
                -0.27059805393218994,
                0.6532814502716064
            ],
            "scale" : [
                1,
                0.3001619577407837,
                1
            ],
            "translation" : [
                -0.3157280683517456,
                0.47154706716537476,
                0.0030538439750671387
            ]
        },
        {
            "mesh" : 4,
            "name" : "Torus",
            "scale" : [
                1.1494150161743164,
                1.1494150161743164,
                1.1494150161743164
            ],
            "translation" : [
                0,
                0.7909057140350342,
                0
            ]
        },
        {
            "mesh" : 5,
            "name" : "Cylinder.004",
            "rotation" : [
                0.7071067690849304,
                0,
                0,
                0.7071067690849304
            ],
            "translation" : [
                0.03714942932128906,
                3.880093574523926,
                -0.028672978281974792
            ]
        },
        {
            "mesh" : 6,
            "name" : "Plane",
            "rotation" : [
                0,
                0,
                -0.7071067690849304,
                0.7071068286895752
            ],
            "translation" : [
                2.1029263734817505e-05,
                2.939387321472168,
                -0.017583727836608887
            ]
        },
        {
            "mesh" : 7,
            "name" : "screen",
            "rotation" : [
                0,
                0,
                -0.7071067690849304,
                0.7071068286895752
            ],
            "translation" : [
                0.03802144527435303,
                2.9085915088653564,
                -0.006993770599365234
            ]
        }
    ],
    "materials" : [
        {
            "doubleSided" : true,
            "emissiveFactor" : [
                0.05582406744360924,
                0.05582406744360924,
                0.05582406744360924
            ],
            "name" : "Material.001",
            "pbrMetallicRoughness" : {
                "baseColorFactor" : [
                    0.03411153331398964,
                    0.03411153331398964,
                    0.03411153331398964,
                    1
                ],
                "metallicFactor" : 0,
                "roughnessFactor" : 0
            }
        },
        {
            "doubleSided" : true,
            "emissiveFactor" : [
                0,
                0,
                0
            ],
            "name" : "Material.003",
            "pbrMetallicRoughness" : {
                "metallicFactor" : 0,
                "roughnessFactor" : 1
            }
        }
    ],
    "meshes" : [
        {
            "name" : "Cylinder",
            "primitives" : [
                {
                    "attributes" : {
                        "POSITION" : 0,
                        "NORMAL" : 1,
                        "TEXCOORD_0" : 2
                    },
                    "indices" : 3,
                    "material" : 0
                }
            ]
        },
        {
            "name" : "Cylinder.001",
            "primitives" : [
                {
                    "attributes" : {
                        "POSITION" : 4,
                        "NORMAL" : 5,
                        "TEXCOORD_0" : 6
                    },
                    "indices" : 7,
                    "material" : 0
                }
            ]
        },
        {
            "name" : "Cylinder.002",
            "primitives" : [
                {
                    "attributes" : {
                        "POSITION" : 8,
                        "NORMAL" : 9,
                        "TEXCOORD_0" : 10
                    },
                    "indices" : 7,
                    "material" : 0
                }
            ]
        },
        {
            "name" : "Cylinder.003",
            "primitives" : [
                {
                    "attributes" : {
                        "POSITION" : 11,
                        "NORMAL" : 12,
                        "TEXCOORD_0" : 13
                    },
                    "indices" : 7,
                    "material" : 0
                }
            ]
        },
        {
            "name" : "Torus",
            "primitives" : [
                {
                    "attributes" : {
                        "POSITION" : 14,
                        "NORMAL" : 15,
                        "TEXCOORD_0" : 16
                    },
                    "indices" : 17,
                    "material" : 0
                }
            ]
        },
        {
            "name" : "Cylinder.004",
            "primitives" : [
                {
                    "attributes" : {
                        "POSITION" : 18,
                        "NORMAL" : 19,
                        "TEXCOORD_0" : 20
                    },
                    "indices" : 7,
                    "material" : 0
                }
            ]
        },
        {
            "name" : "Plane.001",
            "primitives" : [
                {
                    "attributes" : {
                        "POSITION" : 21,
                        "NORMAL" : 22,
                        "TEXCOORD_0" : 23
                    },
                    "indices" : 24,
                    "material" : 1
                }
            ]
        },
        {
            "name" : "Plane.003",
            "primitives" : [
                {
                    "attributes" : {
                        "POSITION" : 25,
                        "NORMAL" : 26,
                        "TEXCOORD_0" : 27
                    },
                    "indices" : 28
                }
            ]
        }
    ],
    "accessors" : [
        {
            "bufferView" : 0,
            "componentType" : 5126,
            "count" : 72,
            "max" : [
                0.008660254068672657,
                5.415596961975098,
                0.009999999776482582
            ],
            "min" : [
                -0.008660254068672657,
                -1.5,
                -0.009999999776482582
            ],
            "type" : "VEC3"
        },
        {
            "bufferView" : 1,
            "componentType" : 5126,
            "count" : 72,
            "type" : "VEC3"
        },
        {
            "bufferView" : 2,
            "componentType" : 5126,
            "count" : 72,
            "type" : "VEC2"
        },
        {
            "bufferView" : 3,
            "componentType" : 5123,
            "count" : 132,
            "type" : "SCALAR"
        },
        {
            "bufferView" : 4,
            "componentType" : 5126,
            "count" : 36,
            "max" : [
                0.008660254068672657,
                1.5,
                0.009999999776482582
            ],
            "min" : [
                -0.008660254068672657,
                -1.5,
                -0.009999999776482582
            ],
            "type" : "VEC3"
        },
        {
            "bufferView" : 5,
            "componentType" : 5126,
            "count" : 36,
            "type" : "VEC3"
        },
        {
            "bufferView" : 6,
            "componentType" : 5126,
            "count" : 36,
            "type" : "VEC2"
        },
        {
            "bufferView" : 7,
            "componentType" : 5123,
            "count" : 60,
            "type" : "SCALAR"
        },
        {
            "bufferView" : 8,
            "componentType" : 5126,
            "count" : 36,
            "max" : [
                0.008660254068672657,
                1.5,
                0.009999999776482582
            ],
            "min" : [
                -0.008660254068672657,
                -1.5,
                -0.009999999776482582
            ],
            "type" : "VEC3"
        },
        {
            "bufferView" : 9,
            "componentType" : 5126,
            "count" : 36,
            "type" : "VEC3"
        },
        {
            "bufferView" : 10,
            "componentType" : 5126,
            "count" : 36,
            "type" : "VEC2"
        },
        {
            "bufferView" : 11,
            "componentType" : 5126,
            "count" : 36,
            "max" : [
                0.008660254068672657,
                1.5,
                0.009999999776482582
            ],
            "min" : [
                -0.008660254068672657,
                -1.5,
                -0.009999999776482582
            ],
            "type" : "VEC3"
        },
        {
            "bufferView" : 12,
            "componentType" : 5126,
            "count" : 36,
            "type" : "VEC3"
        },
        {
            "bufferView" : 13,
            "componentType" : 5126,
            "count" : 36,
            "type" : "VEC2"
        },
        {
            "bufferView" : 14,
            "componentType" : 5126,
            "count" : 720,
            "max" : [
                0.029999999329447746,
                0.009999999776482582,
                0.0298356544226408
            ],
            "min" : [
                -0.029344426468014717,
                -0.009999999776482582,
                -0.0298356544226408
            ],
            "type" : "VEC3"
        },
        {
            "bufferView" : 15,
            "componentType" : 5126,
            "count" : 720,
            "type" : "VEC3"
        },
        {
            "bufferView" : 16,
            "componentType" : 5126,
            "count" : 720,
            "type" : "VEC2"
        },
        {
            "bufferView" : 17,
            "componentType" : 5123,
            "count" : 1080,
            "type" : "SCALAR"
        },
        {
            "bufferView" : 18,
            "componentType" : 5126,
            "count" : 36,
            "max" : [
                0.05196152254939079,
                1.25,
                0.059999994933605194
            ],
            "min" : [
                -0.05196152254939079,
                -1.25,
                -0.059999994933605194
            ],
            "type" : "VEC3"
        },
        {
            "bufferView" : 19,
            "componentType" : 5126,
            "count" : 36,
            "type" : "VEC3"
        },
        {
            "bufferView" : 20,
            "componentType" : 5126,
            "count" : 36,
            "type" : "VEC2"
        },
        {
            "bufferView" : 21,
            "componentType" : 5126,
            "count" : 24,
            "max" : [
                1,
                0,
                1
            ],
            "min" : [
                -1,
                -0.009643896482884884,
                -1
            ],
            "type" : "VEC3"
        },
        {
            "bufferView" : 22,
            "componentType" : 5126,
            "count" : 24,
            "type" : "VEC3"
        },
        {
            "bufferView" : 23,
            "componentType" : 5126,
            "count" : 24,
            "type" : "VEC2"
        },
        {
            "bufferView" : 24,
            "componentType" : 5123,
            "count" : 36,
            "type" : "SCALAR"
        },
        {
            "bufferView" : 25,
            "componentType" : 5126,
            "count" : 4,
            "max" : [
                1,
                0,
                1
            ],
            "min" : [
                -1,
                0,
                -1
            ],
            "type" : "VEC3"
        },
        {
            "bufferView" : 26,
            "componentType" : 5126,
            "count" : 4,
            "type" : "VEC3"
        },
        {
            "bufferView" : 27,
            "componentType" : 5126,
            "count" : 4,
            "type" : "VEC2"
        },
        {
            "bufferView" : 28,
            "componentType" : 5123,
            "count" : 6,
            "type" : "SCALAR"
        }
    ],
    "bufferViews" : [
        {
            "buffer" : 0,
            "byteLength" : 864,
            "byteOffset" : 0
        },
        {
            "buffer" : 0,
            "byteLength" : 864,
            "byteOffset" : 864
        },
        {
            "buffer" : 0,
            "byteLength" : 576,
            "byteOffset" : 1728
        },
        {
            "buffer" : 0,
            "byteLength" : 264,
            "byteOffset" : 2304
        },
        {
            "buffer" : 0,
            "byteLength" : 432,
            "byteOffset" : 2568
        },
        {
            "buffer" : 0,
            "byteLength" : 432,
            "byteOffset" : 3000
        },
        {
            "buffer" : 0,
            "byteLength" : 288,
            "byteOffset" : 3432
        },
        {
            "buffer" : 0,
            "byteLength" : 120,
            "byteOffset" : 3720
        },
        {
            "buffer" : 0,
            "byteLength" : 432,
            "byteOffset" : 3840
        },
        {
            "buffer" : 0,
            "byteLength" : 432,
            "byteOffset" : 4272
        },
        {
            "buffer" : 0,
            "byteLength" : 288,
            "byteOffset" : 4704
        },
        {
            "buffer" : 0,
            "byteLength" : 432,
            "byteOffset" : 4992
        },
        {
            "buffer" : 0,
            "byteLength" : 432,
            "byteOffset" : 5424
        },
        {
            "buffer" : 0,
            "byteLength" : 288,
            "byteOffset" : 5856
        },
        {
            "buffer" : 0,
            "byteLength" : 8640,
            "byteOffset" : 6144
        },
        {
            "buffer" : 0,
            "byteLength" : 8640,
            "byteOffset" : 14784
        },
        {
            "buffer" : 0,
            "byteLength" : 5760,
            "byteOffset" : 23424
        },
        {
            "buffer" : 0,
            "byteLength" : 2160,
            "byteOffset" : 29184
        },
        {
            "buffer" : 0,
            "byteLength" : 432,
            "byteOffset" : 31344
        },
        {
            "buffer" : 0,
            "byteLength" : 432,
            "byteOffset" : 31776
        },
        {
            "buffer" : 0,
            "byteLength" : 288,
            "byteOffset" : 32208
        },
        {
            "buffer" : 0,
            "byteLength" : 288,
            "byteOffset" : 32496
        },
        {
            "buffer" : 0,
            "byteLength" : 288,
            "byteOffset" : 32784
        },
        {
            "buffer" : 0,
            "byteLength" : 192,
            "byteOffset" : 33072
        },
        {
            "buffer" : 0,
            "byteLength" : 72,
            "byteOffset" : 33264
        },
        {
            "buffer" : 0,
            "byteLength" : 48,
            "byteOffset" : 33336
        },
        {
            "buffer" : 0,
            "byteLength" : 48,
            "byteOffset" : 33384
        },
        {
            "buffer" : 0,
            "byteLength" : 32,
            "byteOffset" : 33432
        },
        {
            "buffer" : 0,
            "byteLength" : 12,
            "byteOffset" : 33464
        }
    ],
    "buffers" : [
        {
            "byteLength" : 33476,
            "uri" : "data:application/octet-stream;base64,"
        }
    ]
}
