{
    "asset" : {
        "generator" : "Khronos glTF Blender I/O v1.1.46",
        "version" : "2.0"
    },
    "scene" : 0,
    "scenes" : [
        {
            "name" : "Scene",
            "nodes" : [
                0
            ]
        }
    ],
    "nodes" : [
        {
            "mesh" : 0,
            "name" : "Quad Sphere"
        }
    ],
    "materials" : [
        {
            "doubleSided" : true,
            "emissiveFactor" : [
                0,
                0,
                0
            ],
            "name" : "Material",
            "pbrMetallicRoughness" : {
                "baseColorTexture" : {
                    "index" : 0,
                    "texCoord" : 0
                },
                "metallicFactor" : 0,
                "roughnessFactor" : 0.4000000059604645
            }
        }
    ],
    "meshes" : [
        {
            "name" : "Quad Sphere",
            "primitives" : [
                {
                    "attributes" : {
                        "POSITION" : 0,
                        "NORMAL" : 1,
                        "TEXCOORD_0" : 2
                    },
                    "indices" : 3,
                    "material" : 0
                }
            ]
        }
    ],
    "textures" : [
        {
            "source" : 0
        }
    ],
    "images" : [
        {
            "bufferView" : 4,
            "mimeType" : "image/png",
            "name" : "Material Base Color"
        }
    ],
    "accessors" : [
        {
            "bufferView" : 0,
            "componentType" : 5126,
            "count" : 38085,
            "max" : [
                4.519051551818848,
                1.3793861865997314,
                4.533670425415039
            ],
            "min" : [
                -4.525740146636963,
                -1.244740605354309,
                -4.498281955718994
            ],
            "type" : "VEC3"
        },
        {
            "bufferView" : 1,
            "componentType" : 5126,
            "count" : 38085,
            "type" : "VEC3"
        },
        {
            "bufferView" : 2,
            "componentType" : 5126,
            "count" : 38085,
            "type" : "VEC2"
        },
        {
            "bufferView" : 3,
            "componentType" : 5123,
            "count" : 178290,
            "type" : "SCALAR"
        }
    ],
    "bufferViews" : [
        {
            "buffer" : 0,
            "byteLength" : 457020,
            "byteOffset" : 0
        },
        {
            "buffer" : 0,
            "byteLength" : 457020,
            "byteOffset" : 457020
        },
        {
            "buffer" : 0,
            "byteLength" : 304680,
            "byteOffset" : 914040
        },
        {
            "buffer" : 0,
            "byteLength" : 356580,
            "byteOffset" : 1218720
        },
        {
            "buffer" : 0,
            "byteLength" : 78142,
            "byteOffset" : 1575300
        }
    ],
    "buffers" : [
        {
            "byteLength" : 1653444,
            "uri" : "data:application/octet-stream;base64,"
        }
    ]
}
