{
    "asset" : {
        "generator" : "Khronos glTF Blender I/O v1.1.46",
        "version" : "2.0"
    },
    "scene" : 0,
    "scenes" : [
        {
            "name" : "Scene",
            "nodes" : [
                0
            ]
        }
    ],
    "nodes" : [
        {
            "mesh" : 0,
            "name" : "Quad Sphere"
        }
    ],
    "meshes" : [
        {
            "name" : "Quad Sphere",
            "primitives" : [
                {
                    "attributes" : {
                        "POSITION" : 0
                    },
                    "indices" : 1
                }
            ]
        }
    ],
    "accessors" : [
        {
            "bufferView" : 0,
            "componentType" : 5126,
            "count" : 38085,
            "max" : [
                4.519051551818848,
                1.3793861865997314,
                4.533670425415039
            ],
            "min" : [
                -4.525740146636963,
                -1.244740605354309,
                -4.498281955718994
            ],
            "type" : "VEC3"
        },
        {
            "bufferView" : 1,
            "componentType" : 5123,
            "count" : 178290,
            "type" : "SCALAR"
        }
    ],
    "bufferViews" : [
        {
            "buffer" : 0,
            "byteLength" : 457020,
            "byteOffset" : 0
        },
        {
            "buffer" : 0,
            "byteLength" : 356580,
            "byteOffset" : 457020
        }
    ],
    "buffers" : [
        {
            "byteLength" : 813600,
            "uri" : "data:application/octet-stream;base64,"
        }
    ]
}
